<svg width="32" height="32" viewBox="0 0 32 32" fill="none" xmlns="http://www.w3.org/2000/svg">
<path d="M29.0805 13.8365L28.9841 13.9205L23.3466 18.8405L23.1209 19.0376L23.1882 19.3296L24.8769 26.6546L24.8773 26.6559C24.9443 26.9431 24.9251 27.2437 24.8223 27.52C24.7194 27.7964 24.5373 28.0364 24.2988 28.2098C24.0603 28.3833 23.776 28.4826 23.4813 28.4954C23.1869 28.5081 22.8953 28.4339 22.6429 28.2819C22.6427 28.2818 22.6425 28.2816 22.6423 28.2815L16.2547 24.4072L15.9951 24.2498L15.7357 24.4075L9.36233 28.2815C9.36204 28.2817 9.36175 28.2819 9.36146 28.282C9.10907 28.4339 8.81755 28.5081 8.52325 28.4954C8.22861 28.4826 7.94427 28.3833 7.70577 28.2098C7.46727 28.0364 7.2852 27.7964 7.18232 27.52C7.07944 27.2437 7.06031 26.9431 7.12734 26.6559L7.12765 26.6545L8.8139 19.337L8.88113 19.0453L8.65568 18.8482L3.01693 13.9208L3.01694 13.9207L3.01447 13.9186C2.79079 13.7257 2.62905 13.471 2.54953 13.1866C2.47 12.9021 2.47624 12.6005 2.56745 12.3195C2.65866 12.0386 2.83079 11.7908 3.06225 11.6073C3.29371 11.4238 3.57419 11.3127 3.86854 11.288L3.86981 11.2879L11.3023 10.6441L11.6034 10.6181L11.7203 10.3393L14.6215 3.41933L14.6219 3.41854C14.7354 3.1465 14.9268 2.91412 15.1721 2.75067C15.4175 2.58722 15.7056 2.5 16.0004 2.5C16.2952 2.5 16.5834 2.58722 16.8287 2.75067C17.074 2.91412 17.2655 3.1465 17.379 3.41854L17.3795 3.41982L20.2895 10.3398L20.4065 10.6181L20.7073 10.6441L28.1373 11.2879L28.1385 11.288C28.4329 11.3127 28.7134 11.4238 28.9448 11.6073C29.1763 11.7908 29.3484 12.0386 29.4396 12.3195C29.5308 12.6005 29.5371 12.9021 29.4576 13.1866C29.3889 13.4323 29.2588 13.6558 29.0805 13.8365Z" fill="#FBCB6E" stroke="white"/>
</svg>
