<svg width="33" height="33" viewBox="0 0 33 33" fill="none" xmlns="http://www.w3.org/2000/svg">
<path d="M16.9082 3.30664C14.3371 3.30664 11.8236 4.06908 9.6858 5.49754C7.54796 6.92599 5.88171 8.95632 4.89778 11.3318C3.91384 13.7072 3.65639 16.3211 4.158 18.8428C4.65961 21.3646 5.89774 23.6809 7.71582 25.499C9.5339 27.3171 11.8503 28.5552 14.372 29.0568C16.8938 29.5585 19.5077 29.301 21.8831 28.3171C24.2585 27.3331 26.2889 25.6669 27.7173 23.5291C29.1458 21.3912 29.9082 18.8778 29.9082 16.3066C29.9046 12.8599 28.5338 9.55546 26.0966 7.11827C23.6594 4.68109 20.3549 3.31028 16.9082 3.30664ZM10.1682 24.9941C10.8916 23.8627 11.8882 22.9317 13.0661 22.2867C14.244 21.6418 15.5653 21.3037 16.9082 21.3037C18.2511 21.3037 19.5724 21.6418 20.7503 22.2867C21.9282 22.9317 22.9248 23.8627 23.6482 24.9941C21.7211 26.4929 19.3495 27.3066 16.9082 27.3066C14.4669 27.3066 12.0953 26.4929 10.1682 24.9941ZM12.9082 15.3066C12.9082 14.5155 13.1428 13.7422 13.5823 13.0844C14.0219 12.4266 14.6466 11.9139 15.3775 11.6111C16.1084 11.3084 16.9126 11.2292 17.6886 11.3835C18.4645 11.5378 19.1772 11.9188 19.7366 12.4782C20.296 13.0376 20.677 13.7504 20.8314 14.5263C20.9857 15.3022 20.9065 16.1065 20.6037 16.8374C20.301 17.5683 19.7883 18.193 19.1305 18.6325C18.4727 19.072 17.6993 19.3066 16.9082 19.3066C15.8473 19.3066 14.8299 18.8852 14.0798 18.1351C13.3296 17.3849 12.9082 16.3675 12.9082 15.3066ZM25.1282 23.6079C24.0129 21.9917 22.4447 20.7414 20.6207 20.0141C21.6005 19.2424 22.3154 18.1846 22.6661 16.9878C23.0168 15.7909 22.9858 14.5145 22.5775 13.3361C22.1691 12.1576 21.4037 11.1357 20.3876 10.4125C19.3716 9.68926 18.1554 9.30061 16.9082 9.30061C15.661 9.30061 14.4448 9.68926 13.4288 10.4125C12.4127 11.1357 11.6473 12.1576 11.2389 13.3361C10.8306 14.5145 10.7996 15.7909 11.1503 16.9878C11.501 18.1846 12.2159 19.2424 13.1957 20.0141C11.3717 20.7414 9.8035 21.9917 8.68821 23.6079C7.27892 22.0231 6.3578 20.0647 6.03577 17.9685C5.71373 15.8723 6.00452 13.7278 6.87311 11.793C7.74169 9.85827 9.15105 8.21586 10.9315 7.06356C12.7119 5.91126 14.7874 5.2982 16.9082 5.2982C19.029 5.2982 21.1045 5.91126 22.885 7.06356C24.6654 8.21586 26.0747 9.85827 26.9433 11.793C27.8119 13.7278 28.1027 15.8723 27.7807 17.9685C27.4586 20.0647 26.5375 22.0231 25.1282 23.6079Z" fill="#002D1E"/>
</svg>
